<?xml version="1.0" encoding="utf-8"?>
<!-- Generator: Adobe Illustrator 24.3.0, SVG Export Plug-In . SVG Version: 6.00 Build 0)  -->
<svg version="1.1" xmlns="http://www.w3.org/2000/svg" xmlns:xlink="http://www.w3.org/1999/xlink" x="0px" y="0px"
	 viewBox="0 0 293.8 293.7" style="enable-background:new 0 0 293.8 293.7;" xml:space="preserve">
<style type="text/css">
	.st0{fill:transparent;}
	.st1{fill:#FFFFFF;}
	.st2{fill:#BFCFDA;}
	.st3{fill:#FFFFFF;stroke:#000000;stroke-miterlimit:10;}
</style>
<g id="Layer_3">
	<path class="st0" d="M22.4,224c0,0,22.8,31.7,38.2,41.5s130.3-17,130.3-17l90.2-85.5l12.3-26.3c0,0-1.4-20.1-6.9-34.5
		s-86.1-58.7-86.1-58.7L31.1,121.2L22.4,224z"/>
</g>
<g id="Layer_1">
	<g id="etherscan-logo-light-circle" transform="translate(-219.378 -213.333)">
		<path id="Path_1" class="st1" d="M280.4,353.2c0-6.9,5.6-12.5,12.4-12.5c0,0,0,0,0.1,0l20.7,0.1c6.9,0,12.5,5.6,12.5,12.5
			c0,0,0,0,0,0v78.4c2.3-0.7,5.3-1.4,8.6-2.2c4.7-1.1,8-5.3,8-10.1v-97.3c0-6.9,5.6-12.5,12.5-12.5H376c6.9,0,12.5,5.6,12.5,12.5
			v90.3c0,0,5.2-2.1,10.3-4.2c3.8-1.6,6.3-5.4,6.4-9.6V290.9c0-6.9,5.6-12.5,12.5-12.5l0,0h20.8c6.9,0,12.5,5.6,12.5,12.5v88.6
			c18-13.1,36.3-28.8,50.8-47.6c4.3-5.6,5.5-12.9,3.2-19.5c-20.1-58.5-74.8-98.2-136.6-99c-81.4-1.1-148.7,65.4-148.7,146.8
			c-0.1,25.8,6.6,51.1,19.5,73.5c3.6,6.2,10.5,9.8,17.7,9.2c3.9-0.3,8.8-0.8,14.6-1.5c5.2-0.6,9.2-5,9.2-10.3L280.4,353.2"/>
		<path id="Path_2" class="st2" d="M280,478.9c65.6,47.7,157.4,33.2,205.1-32.4c18.3-25.1,28.1-55.3,28.1-86.4c0-3.4-0.2-6.7-0.4-10
			C459.1,430.1,360.1,467.5,280,478.9"/>
	</g>
	<path class="st3" d="M22.4,224"/>
</g>
</svg>
