<svg id="Layer_1" data-name="Layer 1" xmlns="http://www.w3.org/2000/svg" width="90" height="90" viewBox="0 0 90 90">
  <defs>
    <style>
      .cls-1 {
        fill: #fff;
      }
    </style>
  </defs>
  <path class="cls-1" d="M45,0A45,45,0,1,0,90,45,45.07,45.07,0,0,0,45,0ZM22.2,46.5l.2-.3L34.1,27.9a.39.39,0,0,1,.7.1c2,4.4,3.6,9.8,2.9,13.2a19.75,19.75,0,0,1-2.3,5,4.35,4.35,0,0,1-.4.7c-.1.1-.2.2-.3.2h-12C22.2,47.1,22,46.8,22.2,46.5Zm52.2,6.3a.52.52,0,0,1-.2.4c-.9.4-4,1.8-5.3,3.6-3.3,4.6-5.8,11.1-11.4,11.1H33.9a15.07,15.07,0,0,1-15-15.1v-.3a.43.43,0,0,1,.4-.4H32.4c.3,0,.5.2.4.5a4.51,4.51,0,0,0,.5,2.5,4.63,4.63,0,0,0,4.1,2.6h6.5v-5H37.5c-.3,0-.5-.4-.3-.6s.1-.2.2-.3a42.61,42.61,0,0,0,2.3-3.7,19.12,19.12,0,0,0,1.6-3.2,1.42,1.42,0,0,0,.2-.6,5.39,5.39,0,0,0,.3-1,3.09,3.09,0,0,0,.2-.8,13.86,13.86,0,0,0,.3-3,4.87,4.87,0,0,0-.1-1.2c0-.4-.1-.9-.1-1.3a5,5,0,0,0-.2-1.2,11.63,11.63,0,0,0-.4-1.8l-.1-.2-.3-1.2q-.6-2-1.2-3.6c-.2-.5-.3-.9-.5-1.3a15.86,15.86,0,0,0-.8-1.8,1.61,1.61,0,0,0-.4-.7c-.1-.3-.3-.5-.4-.8l-.3-.6L37,22.1c-.1-.2.1-.4.3-.4l5,1.3h0l.6.2.7.2.3.1V20.6A2.56,2.56,0,0,1,46.4,18a2.5,2.5,0,0,1,1.8.8,2.41,2.41,0,0,1,.7,1.8V25l.5.1a.1.1,0,0,1,.1.1c.1.1.3.2.5.4a2.65,2.65,0,0,1,.6.5c.5.4,1.1.9,1.7,1.4.2.1.3.3.5.4a31.79,31.79,0,0,1,2.6,2.6c.2.3.5.5.7.8s.5.6.7.9l.9,1.2c.1.2.3.4.4.6a14,14,0,0,1,1,1.6c.1.3.3.5.4.8a19.45,19.45,0,0,1,.8,2.2.9.9,0,0,1,.1.5h0a1.7,1.7,0,0,1,.1.7,8.88,8.88,0,0,1-.1,2.3c-.1.3-.2.6-.3,1a6.89,6.89,0,0,1-.4,1,17.38,17.38,0,0,1-1,1.9c-.1.2-.3.5-.4.7s-.3.5-.5.7a5.55,5.55,0,0,1-.6.8c-.2.3-.4.5-.6.8a9,9,0,0,1-.9,1l-.6.6-.6.6a6,6,0,0,0-.8.8l-.5.5a.37.37,0,0,1-.3.1H49v5h5a4.62,4.62,0,0,0,3-1.1c.3-.3,1.6-1.4,3.1-3,.1-.1.1-.1.2-.1l13.7-4c.3-.1.5.1.5.4v3Z" transform="translate(0 0)"/>
</svg>
