<svg id="Layer_1" data-name="Layer 1" xmlns="http://www.w3.org/2000/svg" width="90" height="90" viewBox="0 0 90 90">
  <defs>
    <style>
      .cls-1 {
        fill: #fff;
      }
    </style>
  </defs>
  <path class="cls-1" d="M45,0A45,45,0,1,0,90,45,45.07,45.07,0,0,0,45,0ZM67.11,33.66c.72,16.05-11.24,33.93-32.42,33.93A32.36,32.36,0,0,1,17.2,62.47a23,23,0,0,0,16.89-4.73,11.41,11.41,0,0,1-10.66-7.92,11.54,11.54,0,0,0,5.15-.19A11.41,11.41,0,0,1,19.44,38.3a11.36,11.36,0,0,0,5.16,1.42A11.41,11.41,0,0,1,21.07,24.5,32.36,32.36,0,0,0,44.58,36.41,11.42,11.42,0,0,1,64,26a22.67,22.67,0,0,0,7.24-2.77,11.42,11.42,0,0,1-5,6.31,22.53,22.53,0,0,0,6.55-1.79A23.29,23.29,0,0,1,67.11,33.66Z"/>
</svg>
