<svg id="Layer_2" data-name="Layer 2" xmlns="http://www.w3.org/2000/svg" width="90" height="90" viewBox="0 0 90 90">
  <defs>
    <style>
      .cls-1 {
        fill: #fff;
      }
    </style>
  </defs>
  <g>
    <ellipse class="cls-1" cx="53.7" cy="47.68" rx="4.69" ry="5.36"/>
    <ellipse class="cls-1" cx="36.3" cy="47.68" rx="4.69" ry="5.36"/>
    <path class="cls-1" d="M45,0A45,45,0,1,0,90,45,45,45,0,0,0,45,0Zm12,66.43L54.86,63.5a26.84,26.84,0,0,0,11.57-7.79C62.09,59,55.55,62.41,45,62.41S27.91,59,23.57,55.71A26.84,26.84,0,0,0,35.14,63.5L33,66.43s-10.5-.07-17.41-8c1.18-19.52,8-29.46,8-29.46A28,28,0,0,1,37,23.57l.65,1.31a26.37,26.37,0,0,0-12.71,6.73c5.42-2.77,10.77-5.36,20.09-5.36s14.67,2.59,20.09,5.36a25.76,25.76,0,0,0-12.71-6.73L53,23.57c7.26.56,13.4,5.36,13.4,5.36s6.85,9.94,8,29.46C67.55,66.36,57.05,66.43,57.05,66.43Z"/>
  </g>
</svg>
