<svg id="Layer_1" data-name="Layer 1" xmlns="http://www.w3.org/2000/svg" width="90" height="90" viewBox="0 0 90 90">
  <defs>
    <style>
      .cls-1 {
        fill: #fff;
      }
    </style>
  </defs>
  <g>
    <path class="cls-1" d="M45,0A45,45,0,1,0,90,45,45.07,45.07,0,0,0,45,0Zm0,71.82L11.31,38.29,31.53,18.18H58.47L78.69,38.31Z"/>
    <path class="cls-1" d="M60.72,30.82a22.2,22.2,0,0,0-31.44,0l-7.51,7.5,7.51,7.51a22.22,22.22,0,0,0,31.44,0l7.51-7.51ZM45,47.53a9,9,0,1,1,9.19-9A9.09,9.09,0,0,1,45,47.53Z"/>
    <path class="cls-1" d="M45,42.19a3.87,3.87,0,1,1,3.87-3.87A3.88,3.88,0,0,1,45,42.19Z"/>
  </g>
</svg>
