<svg id="Layer_1" data-name="Layer 1" xmlns="http://www.w3.org/2000/svg" width="90" height="90" viewBox="0 0 90 90">
  <defs>
    <style>
      .cls-1 {
        fill: #fff;
      }
    </style>
  </defs>
  <path class="cls-1" d="M45,0A45,45,0,1,0,90,45,45,45,0,0,0,45,0ZM65.56,41.05a21.15,21.15,0,0,1-8.28-1.91,24.12,24.12,0,0,1-3.2-1.84c0,5.76,0,11.52,0,17.26a15,15,0,0,1-2.66,7.77,14.71,14.71,0,0,1-11.66,6.33,14.33,14.33,0,0,1-8-2,14.85,14.85,0,0,1-7.19-11.26c0-1-.07-2,0-2.94A14.86,14.86,0,0,1,41.68,39.25c0,2.92-.08,5.84-.08,8.76a6.9,6.9,0,0,0-6,.73A6.81,6.81,0,0,0,33,52.19a7.91,7.91,0,0,0-.27,3.18A6.71,6.71,0,0,0,39.59,61a6.62,6.62,0,0,0,5.46-3.17,4.57,4.57,0,0,0,.81-2.1c.2-3.53.12-7,.14-10.57,0-7.95,0-15.88,0-23.8h0c2.58,0,5.15,0,7.71,0a12.32,12.32,0,0,0,3.45,8.23,13.94,13.94,0,0,0,8.36,3.52Z"/>
</svg>
